<?xml version="1.0" encoding="utf-8"?>
<!-- Generator: Adobe Illustrator 21.1.0, SVG Export Plug-In . SVG Version: 6.00 Build 0)  -->
<svg version="1.1" id="Layer_1" xmlns="http://www.w3.org/2000/svg" xmlns:xlink="http://www.w3.org/1999/xlink" x="0px" y="0px"
	 viewBox="0 0 29 29.8" style="enable-background:new 0 0 29 29.8;" xml:space="preserve">
<style type="text/css">
	.st0{fill:#FFFFFF;}
</style>
<title>FBIconDrk</title>
<path class="st0" d="M27.8,6.6v16.6c0,2.8-2.2,5-5,5h-3.2V17.9H23l0.5-4h-4v-2.6c0-1.2,0.3-1.9,2-1.9h2.1V5.8c-1-0.1-2-0.2-3.1-0.2
	c-3.1,0-5.2,1.9-5.2,5.3v3h-3.5v4h3.4v10.2H6.2c-2.8,0-5-2.2-5-5V6.6c0-2.8,2.2-5,5-5h16.6C25.5,1.6,27.8,3.9,27.8,6.6z"/>
</svg>
