<?xml version="1.0" encoding="utf-8"?>
<!-- Generator: Adobe Illustrator 22.1.0, SVG Export Plug-In . SVG Version: 6.00 Build 0)  -->
<svg version="1.1" id="Layer_1" xmlns="http://www.w3.org/2000/svg" xmlns:xlink="http://www.w3.org/1999/xlink" x="0px" y="0px"
	 viewBox="0 0 355 73.6" style="enable-background:new 0 0 355 73.6;" xml:space="preserve">
<style type="text/css">
	.st0{fill:#78853C;}
	.st1{fill:#BABF99;}
	.st2{fill:#6E7C7C;}
</style>
<g>
	<polyline class="st0" points="146.8,60.5 131.8,43.7 131.7,60.5 125.9,60.5 125.9,35.5 131.7,35.5 146.8,52.2 146.8,35.5 
		152.6,35.5 152.6,60.5 146.8,60.5 	"/>
	<path class="st0" d="M8.7,60.5c-2.3,0-4.2-0.7-5.8-2.2c-1.6-1.5-2.4-3.4-2.4-5.7v-9.2c0-2.3,0.8-4.1,2.4-5.6
		c1.6-1.5,3.5-2.3,5.8-2.3H28v5.8H8.6c-1.6,0-2.3,0.7-2.3,2.1v9.2c0,1.4,0.8,2.1,2.3,2.1h13.5v-3.8h-7.9v-5.8H28v15.4H8.7"/>
	<polyline class="st0" points="71.7,41.3 71.7,45.1 91.2,45.1 91.2,50.9 71.7,50.9 71.7,54.7 92.5,54.7 92.5,60.5 65.9,60.5 
		65.9,35.5 92.6,35.5 92.6,41.3 71.7,41.3 	"/>
	<polyline class="st0" points="101.7,41.3 101.7,45.1 121.2,45.1 121.2,50.9 101.7,50.9 101.7,54.7 122.5,54.7 122.5,60.5 
		95.9,60.5 95.9,35.5 122.5,35.5 122.5,41.3 101.7,41.3 	"/>
	<path class="st1" d="M184,58.2c-1.4,1.6-3.1,2.3-5.1,2.3h-21.6v-5.8h21.6c0.8,0,1.2-0.6,1.2-1.9c0-1.3-0.4-1.9-1.2-1.9h-15.7
		c-2.1,0-3.8-0.8-5.1-2.3c-1.3-1.4-1.9-3.2-1.9-5.4c0-2.1,0.7-3.9,2-5.5c1.3-1.5,3-2.3,5.1-2.3h21.6v5.8h-21.6
		c-0.8,0-1.2,0.6-1.2,1.9c0,1.2,0.4,1.9,1.2,1.9h15.7c2.1,0,3.8,0.8,5.1,2.3c1.3,1.5,1.9,3.3,1.9,5.4
		C185.9,54.9,185.2,56.7,184,58.2"/>
	<path class="st1" d="M218.7,49.7c-1.3,1.8-3,2.7-5.2,2.7h-18.4v8.1h-5.8v-25h24.2c2.2,0,3.9,0.9,5.2,2.7c1.2,1.6,1.8,3.6,1.8,5.8
		C220.5,46.2,219.9,48.1,218.7,49.7 M213.4,41.3h-18.4v5.2h18.4c0.8,0,1.3-0.9,1.3-2.6C214.7,42.2,214.3,41.3,213.4,41.3z"/>
	<path class="st1" d="M248.6,60.5v-8H228v-5.8h20.5v-3.5c0-1.3-0.4-1.9-1.3-1.9h-16.5c-0.8,0-1.2,0.6-1.2,1.9v17.3h-5.8V43.3
		c0-2.1,0.6-4,1.9-5.4c1.3-1.5,3-2.3,5.1-2.3h16.5c2.1,0,3.8,0.8,5.1,2.3c1.3,1.5,2,3.3,2,5.4v17.3H248.6"/>
	<path class="st1" d="M266,60.5c-2.3,0-4.2-0.7-5.8-2.2c-1.6-1.5-2.4-3.4-2.4-5.7v-9.2c0-2.3,0.8-4.1,2.4-5.6
		c1.6-1.5,3.5-2.3,5.8-2.3h19.3v5.8H266c-1.6,0-2.3,0.7-2.3,2.1v9.2c0,1.4,0.8,2.1,2.3,2.1h19.3v5.8H266"/>
	<polyline class="st1" points="294.5,41.3 294.5,45.1 314,45.1 314,50.9 294.5,50.9 294.5,54.7 315.3,54.7 315.3,60.5 288.7,60.5 
		288.7,35.5 315.4,35.5 315.4,41.3 294.5,41.3 	"/>
	<path class="st0" d="M54.9,60.5h8l-7.3-8.2h0c2.2,0,4-0.9,5.3-2.6c1.2-1.6,1.8-3.5,1.8-5.8c0-2.3-0.6-4.2-1.8-5.8
		c-1.3-1.7-3.1-2.6-5.3-2.6H31.3v25h5.8v-8.2h10.5L54.9,60.5 M37.1,46.5v-5.2h18.1c1.1,0,1.6,0.9,1.6,2.6c0,1.7-0.5,2.6-1.6,2.6
		H37.1z"/>
	<path class="st0" d="M333.4,0c-10.5,0-14.3,8.6-14.3,14.3v7.1h23.1v-6.9c0,0-12.3,0-16.3,0v-0.2c0-1.2,0.5-7.5,7.5-7.5
		c0,0,10.2,0,14.7,0c0,4.5,0,14.7,0,14.7c0,1.2-0.5,7.5-7.5,7.5h-7.3v6.9h7.3c10.5,0,14.3-8.6,14.3-14.3V0H333.4"/>
</g>
<g>
	<path class="st2" d="M0.8,68.6v1.9h3.7V71H0.8v2.1h3.8v0.5H0v-5.5h4.7v0.5H0.8z"/>
	<path class="st2" d="M12.5,68.1v5.5h-1.3l-3-3.8l-0.5-0.6l-0.2-0.3l-0.2-0.3h0l0,0.2l0,0.2v0.4v4.2H6.3v-5.5h1.3l2.7,3.3l0.7,0.9
		l0.3,0.4l0.3,0.4h0l0-0.2l0-0.2v-0.4v-4.2H12.5z"/>
	<path class="st2" d="M19.1,68.1H20l-2.6,5.5h-1.2l-2.6-5.5h0.9l1.9,4.2l0.2,0.4c0.1,0.2,0.1,0.3,0.2,0.4h0c0.1-0.3,0.2-0.6,0.4-0.8
		L19.1,68.1z"/>
	<path class="st2" d="M22,68.1v5.5h-0.8v-5.5H22z"/>
	<path class="st2" d="M23.9,73.6v-5.5h3.5c0.8,0,1.3,0.1,1.6,0.4s0.5,0.6,0.5,1.2c0,0.5-0.1,0.9-0.3,1.1c-0.2,0.2-0.5,0.3-1,0.4v0
		c0.8,0,1.2,0.4,1.2,1.1v1.4h-0.8v-1.3c0-0.6-0.4-1-1.1-1h-0.3h-2.5v2.2H23.9z M24.7,70.8h2.4c0.6,0,1-0.1,1.3-0.2
		c0.2-0.1,0.3-0.4,0.3-0.8c0-0.5-0.1-0.8-0.3-1c-0.2-0.2-0.5-0.2-1.1-0.2h-2.6V70.8z"/>
	<path class="st2" d="M33.9,68c1.4,0,2.2,0.2,2.6,0.5c0.3,0.3,0.5,1.1,0.5,2.3c0,1.3-0.2,2.1-0.5,2.4s-1.2,0.5-2.6,0.5
		c-1.4,0-2.3-0.2-2.6-0.5c-0.3-0.3-0.5-1.1-0.5-2.4v-0.4l0-0.5c0-0.7,0.2-1.2,0.7-1.5C31.9,68.1,32.7,68,33.9,68z M33.9,68.5
		c-1.1,0-1.8,0.1-2,0.3c-0.2,0.2-0.3,0.9-0.3,2c0,1.1,0.1,1.8,0.3,2c0.2,0.2,0.9,0.3,2,0.3c1.2,0,1.8-0.1,2-0.3s0.3-0.9,0.3-2v-0.4
		l0-0.5c0-0.6-0.1-1-0.4-1.2C35.5,68.6,34.9,68.5,33.9,68.5z"/>
	<path class="st2" d="M44.6,68.1v5.5h-1.3l-3-3.8l-0.5-0.6l-0.2-0.3l-0.2-0.3h0l0,0.2l0,0.2v0.4v4.2h-0.8v-5.5h1.3l2.7,3.3l0.7,0.9
		l0.3,0.4l0.3,0.4h0l0-0.2l0-0.2v-0.4v-4.2H44.6z"/>
	<path class="st2" d="M54.5,68.1v5.5h-0.8v-4.4v-0.3l0-0.2l0-0.2h0l-0.1,0.1c0,0.1-0.1,0.1-0.1,0.1L53.4,69L51,73.6h-0.8l-2.5-4.5
		l-0.1-0.3l-0.1-0.1c0,0,0-0.1-0.1-0.1h0l0,0.1l0,0.2v0.3v4.4h-0.8v-5.5H48l1.9,3.6l0.3,0.6l0.2,0.3l0.1,0.3h0l0.1-0.3
		c0.1-0.1,0.1-0.2,0.1-0.3l0.3-0.6l1.9-3.6H54.5z"/>
	<path class="st2" d="M57,68.6v1.9h3.7V71H57v2.1h3.8v0.5h-4.7v-5.5h4.7v0.5H57z"/>
	<path class="st2" d="M68.6,68.1v5.5h-1.3l-3-3.8l-0.5-0.6l-0.2-0.3l-0.2-0.3h0l0,0.2l0,0.2v0.4v4.2h-0.8v-5.5h1.3l2.7,3.3l0.7,0.9
		l0.3,0.4l0.3,0.4h0l0-0.2l0-0.2v-0.4v-4.2H68.6z"/>
	<path class="st2" d="M73.1,68.6v4.9h-0.8v-4.9h-2.4v-0.6h5.5v0.6H73.1z"/>
	<path class="st2" d="M81.1,72.4h-3.7l-0.6,1.2H76l2.7-5.5h1.1l2.7,5.5h-0.9L81.1,72.4z M80.9,71.9l-1.6-3.4l-1.6,3.4H80.9z"/>
	<path class="st2" d="M84.7,68.1V73h3.7v0.6h-4.5v-5.5H84.7z"/>
	<path class="st2" d="M90.5,68.1V73h3.7v0.6h-4.5v-5.5H90.5z"/>
	<path class="st2" d="M101,68.1l-2.7,3.2v2.3h-0.8v-2.3l-2.7-3.2h1l1.6,1.9l0.3,0.4c0,0,0.1,0.1,0.1,0.2l0.1,0.2h0
		c0.1-0.1,0.1-0.1,0.1-0.2l0.1-0.2l0.3-0.4l1.6-1.9H101z"/>
	<path class="st2" d="M110.4,69.6h-0.8c0-0.4-0.1-0.7-0.3-0.8c-0.2-0.1-0.7-0.2-1.4-0.2c-0.9,0-1.4,0.1-1.7,0.2s-0.4,0.4-0.4,0.8
		c0,0.4,0.1,0.7,0.3,0.8s0.8,0.2,1.7,0.2c1.1,0,1.8,0.1,2.2,0.3c0.3,0.2,0.5,0.6,0.5,1.2c0,0.7-0.2,1.1-0.5,1.3
		c-0.4,0.2-1.1,0.3-2.3,0.3c-1,0-1.7-0.1-2.1-0.3c-0.3-0.2-0.5-0.6-0.5-1.2l0-0.2h0.8V72c0,0.5,0.1,0.8,0.3,0.9s0.7,0.2,1.5,0.2
		c0.9,0,1.5-0.1,1.7-0.2c0.2-0.1,0.3-0.4,0.3-1c0-0.3-0.1-0.6-0.2-0.7c-0.1-0.1-0.5-0.2-0.9-0.2l-0.9,0l-0.8,0
		c-1.2-0.1-1.8-0.6-1.8-1.5c0-0.6,0.2-1,0.5-1.3c0.4-0.2,1.1-0.3,2.1-0.3c1.1,0,1.8,0.1,2.1,0.3S110.4,68.9,110.4,69.6z"/>
	<path class="st2" d="M117,68.1h0.8v3.9c0,0.7-0.2,1.2-0.6,1.4c-0.4,0.2-1.1,0.3-2.3,0.3c-1.1,0-1.9-0.1-2.3-0.3s-0.6-0.6-0.6-1.2
		v-0.2v-3.9h0.8v3.9c0,0.5,0.1,0.9,0.3,1c0.2,0.1,0.8,0.2,1.6,0.2c0.9,0,1.5-0.1,1.8-0.2s0.4-0.5,0.4-1V68.1z"/>
	<path class="st2" d="M124.7,69.6h-0.8c0-0.4-0.1-0.7-0.3-0.8c-0.2-0.1-0.7-0.2-1.4-0.2c-0.9,0-1.4,0.1-1.7,0.2s-0.4,0.4-0.4,0.8
		c0,0.4,0.1,0.7,0.3,0.8s0.8,0.2,1.7,0.2c1.1,0,1.8,0.1,2.2,0.3c0.3,0.2,0.5,0.6,0.5,1.2c0,0.7-0.2,1.1-0.5,1.3
		c-0.4,0.2-1.1,0.3-2.3,0.3c-1,0-1.7-0.1-2.1-0.3c-0.3-0.2-0.5-0.6-0.5-1.2l0-0.2h0.8V72c0,0.5,0.1,0.8,0.3,0.9s0.7,0.2,1.5,0.2
		c0.9,0,1.5-0.1,1.7-0.2c0.2-0.1,0.3-0.4,0.3-1c0-0.3-0.1-0.6-0.2-0.7c-0.1-0.1-0.5-0.2-0.9-0.2l-0.9,0l-0.8,0
		c-1.2-0.1-1.8-0.6-1.8-1.5c0-0.6,0.2-1,0.5-1.3c0.4-0.2,1.1-0.3,2.1-0.3c1.1,0,1.8,0.1,2.1,0.3S124.7,68.9,124.7,69.6z"/>
	<path class="st2" d="M128.9,68.6v4.9h-0.8v-4.9h-2.4v-0.6h5.5v0.6H128.9z"/>
	<path class="st2" d="M136.9,72.4h-3.7l-0.6,1.2h-0.9l2.7-5.5h1.1l2.7,5.5h-0.9L136.9,72.4z M136.7,71.9l-1.6-3.4l-1.6,3.4H136.7z"
		/>
	<path class="st2" d="M140.5,68.1v5.5h-0.8v-5.5H140.5z"/>
	<path class="st2" d="M148.6,68.1v5.5h-1.3l-3-3.8l-0.5-0.6l-0.2-0.3l-0.2-0.3h0l0,0.2l0,0.2v0.4v4.2h-0.8v-5.5h1.3l2.7,3.3l0.7,0.9
		l0.3,0.4l0.3,0.4h0l0-0.2l0-0.2v-0.4v-4.2H148.6z"/>
	<path class="st2" d="M155,72.4h-3.7l-0.6,1.2h-0.9l2.7-5.5h1.1l2.7,5.5h-0.9L155,72.4z M154.8,71.9l-1.6-3.4l-1.6,3.4H154.8z"/>
	<path class="st2" d="M157.7,73.6v-5.5h3.2c0.9,0,1.5,0.1,1.7,0.3c0.3,0.2,0.4,0.6,0.4,1.2c0,0.6-0.3,1-0.9,1.2v0
		c0.8,0.1,1.2,0.6,1.2,1.3c0,0.6-0.2,1-0.5,1.2c-0.3,0.2-0.8,0.4-1.6,0.4H157.7z M158.5,70.5h2.2c0.7,0,1.1-0.1,1.3-0.2
		c0.2-0.1,0.3-0.4,0.3-0.8c0-0.4-0.1-0.6-0.3-0.7c-0.2-0.1-0.5-0.2-1.1-0.2h-2.4V70.5z M158.5,73.1h1.7l0.7,0c0.6,0,1-0.1,1.2-0.2
		c0.2-0.1,0.3-0.4,0.3-0.8c0-0.5-0.1-0.8-0.3-0.9c-0.2-0.1-0.7-0.2-1.6-0.2h-2.1V73.1z"/>
	<path class="st2" d="M165.8,68.1V73h3.7v0.6H165v-5.5H165.8z"/>
	<path class="st2" d="M171.3,68.6v1.9h3.7V71h-3.7v2.1h3.8v0.5h-4.7v-5.5h4.7v0.5H171.3z"/>
	<path class="st2" d="M180,73.6v-5.5h3.4c1,0,1.7,0.2,2.1,0.5c0.4,0.3,0.6,1,0.6,2c0,1.2-0.2,2-0.5,2.4c-0.3,0.4-1,0.6-2,0.6H180z
		 M180.8,73.1h2.4c0.9,0,1.4-0.1,1.7-0.4c0.3-0.3,0.4-0.9,0.4-1.8c0-1-0.1-1.6-0.3-1.9c-0.2-0.3-0.7-0.4-1.6-0.4h-2.5V73.1z"/>
	<path class="st2" d="M188.2,68.6v1.9h3.7V71h-3.7v2.1h3.8v0.5h-4.7v-5.5h4.7v0.5H188.2z"/>
	<path class="st2" d="M198.6,69.6h-0.8c0-0.4-0.1-0.7-0.3-0.8c-0.2-0.1-0.7-0.2-1.4-0.2c-0.9,0-1.4,0.1-1.7,0.2s-0.4,0.4-0.4,0.8
		c0,0.4,0.1,0.7,0.3,0.8s0.8,0.2,1.7,0.2c1.1,0,1.8,0.1,2.2,0.3c0.3,0.2,0.5,0.6,0.5,1.2c0,0.7-0.2,1.1-0.5,1.3
		c-0.4,0.2-1.1,0.3-2.3,0.3c-1,0-1.7-0.1-2.1-0.3c-0.3-0.2-0.5-0.6-0.5-1.2l0-0.2h0.8V72c0,0.5,0.1,0.8,0.3,0.9s0.7,0.2,1.5,0.2
		c0.9,0,1.5-0.1,1.7-0.2c0.2-0.1,0.3-0.4,0.3-1c0-0.3-0.1-0.6-0.2-0.7c-0.1-0.1-0.5-0.2-0.9-0.2l-0.9,0l-0.8,0
		c-1.2-0.1-1.8-0.6-1.8-1.5c0-0.6,0.2-1,0.5-1.3c0.4-0.2,1.1-0.3,2.1-0.3c1.1,0,1.8,0.1,2.1,0.3S198.6,68.9,198.6,69.6z"/>
	<path class="st2" d="M201.1,68.1v5.5h-0.8v-5.5H201.1z"/>
	<path class="st2" d="M205.6,70.8h3.1c0,0.1,0,0.3,0,0.6c0,1-0.2,1.6-0.5,1.8c-0.3,0.2-1.2,0.4-2.5,0.4c-1.3,0-2.1-0.1-2.5-0.4
		s-0.5-0.9-0.5-1.9l0-0.8l0-0.5c0-0.8,0.2-1.4,0.6-1.6s1.2-0.4,2.5-0.4c1.2,0,2,0.1,2.4,0.3s0.5,0.6,0.5,1.2v0.2h-0.8v-0.1
		c0-0.5-0.1-0.7-0.4-0.8c-0.2-0.1-0.9-0.2-1.9-0.2c-0.9,0-1.5,0.1-1.8,0.3s-0.4,0.6-0.4,1.3l0,0.7l0,0.8c0,0.7,0.1,1.1,0.4,1.3
		c0.3,0.2,1,0.2,2.1,0.2c0.9,0,1.4-0.1,1.6-0.2c0.2-0.2,0.3-0.5,0.3-1.2c0-0.1,0-0.2,0-0.3h-2.3V70.8z"/>
	<path class="st2" d="M216.5,68.1v5.5h-1.3l-3-3.8l-0.5-0.6l-0.2-0.3l-0.2-0.3h0l0,0.2l0,0.2v0.4v4.2h-0.8v-5.5h1.3l2.7,3.3l0.7,0.9
		l0.3,0.4l0.3,0.4h0l0-0.2l0-0.2v-0.4v-4.2H216.5z"/>
	<path class="st2" d="M226.1,72.4h-3.7l-0.6,1.2h-0.9l2.7-5.5h1.1l2.7,5.5h-0.9L226.1,72.4z M225.9,71.9l-1.6-3.4l-1.6,3.4H225.9z"
		/>
	<path class="st2" d="M235,68.1v5.5h-1.3l-3-3.8l-0.5-0.6l-0.2-0.3l-0.2-0.3h0l0,0.2l0,0.2v0.4v4.2h-0.8v-5.5h1.3l2.7,3.3l0.7,0.9
		l0.3,0.4l0.3,0.4h0l0-0.2l0-0.2v-0.4v-4.2H235z"/>
	<path class="st2" d="M237,73.6v-5.5h3.4c1,0,1.7,0.2,2.1,0.5c0.4,0.3,0.6,1,0.6,2c0,1.2-0.2,2-0.5,2.4c-0.3,0.4-1,0.6-2,0.6H237z
		 M237.8,73.1h2.4c0.9,0,1.4-0.1,1.7-0.4c0.3-0.3,0.4-0.9,0.4-1.8c0-1-0.1-1.6-0.3-1.9c-0.2-0.3-0.7-0.4-1.6-0.4h-2.5V73.1z"/>
	<path class="st2" d="M248.7,68.6v1.9h3.5V71h-3.5v2.5h-0.8v-5.5h4.4v0.5H248.7z"/>
	<path class="st2" d="M258.2,72.4h-3.7l-0.6,1.2h-0.9l2.7-5.5h1.1l2.7,5.5h-0.9L258.2,72.4z M258,71.9l-1.6-3.4l-1.6,3.4H258z"/>
	<path class="st2" d="M260.9,73.6v-5.5h3.2c0.9,0,1.5,0.1,1.7,0.3c0.3,0.2,0.4,0.6,0.4,1.2c0,0.6-0.3,1-0.9,1.2v0
		c0.8,0.1,1.2,0.6,1.2,1.3c0,0.6-0.2,1-0.5,1.2c-0.3,0.2-0.8,0.4-1.6,0.4H260.9z M261.7,70.5h2.2c0.7,0,1.1-0.1,1.3-0.2
		c0.2-0.1,0.3-0.4,0.3-0.8c0-0.4-0.1-0.6-0.3-0.7c-0.2-0.1-0.6-0.2-1.1-0.2h-2.4V70.5z M261.7,73.1h1.7l0.7,0c0.6,0,1-0.1,1.2-0.2
		c0.2-0.1,0.3-0.4,0.3-0.8c0-0.5-0.1-0.8-0.3-0.9c-0.2-0.1-0.7-0.2-1.6-0.2h-2.1V73.1z"/>
	<path class="st2" d="M268.2,73.6v-5.5h3.5c0.8,0,1.3,0.1,1.6,0.4c0.3,0.2,0.5,0.6,0.5,1.2c0,0.5-0.1,0.9-0.3,1.1
		c-0.2,0.2-0.5,0.3-1,0.4v0c0.8,0,1.2,0.4,1.2,1.1v1.4h-0.8v-1.3c0-0.6-0.4-1-1.1-1h-0.3H269v2.2H268.2z M269,70.8h2.4
		c0.6,0,1-0.1,1.3-0.2c0.2-0.1,0.3-0.4,0.3-0.8c0-0.5-0.1-0.8-0.3-1s-0.5-0.2-1.1-0.2H269V70.8z"/>
	<path class="st2" d="M276.3,68.1v5.5h-0.8v-5.5H276.3z"/>
	<path class="st2" d="M283,71.7h0.8v0.2c0,0.8-0.2,1.2-0.5,1.4c-0.3,0.2-1.2,0.3-2.5,0.3c-1.2,0-2-0.2-2.3-0.5
		c-0.3-0.3-0.5-1.1-0.5-2.3c0-1,0-1.6,0.1-1.8c0.1-0.2,0.3-0.5,0.6-0.7c0.4-0.2,1.3-0.3,2.7-0.3c0.9,0,1.5,0.1,1.9,0.3
		c0.3,0.2,0.5,0.6,0.5,1.3l0,0.1h-0.8l0-0.2c0-0.4-0.1-0.7-0.3-0.9s-0.6-0.2-1.3-0.2c-1.2,0-1.9,0.1-2.1,0.2s-0.4,0.6-0.4,1.2
		c0,1.6,0.1,2.5,0.3,2.7c0.2,0.3,0.8,0.4,1.8,0.4c1,0,1.6-0.1,1.8-0.2c0.2-0.1,0.4-0.4,0.4-0.9L283,71.7z"/>
	<path class="st2" d="M289.8,72.4h-3.7l-0.6,1.2h-0.9l2.7-5.5h1.1l2.7,5.5h-0.9L289.8,72.4z M289.5,71.9l-1.6-3.4l-1.6,3.4H289.5z"
		/>
	<path class="st2" d="M295,68.6v4.9h-0.8v-4.9h-2.4v-0.6h5.5v0.6H295z"/>
	<path class="st2" d="M299.4,68.1v5.5h-0.8v-5.5H299.4z"/>
	<path class="st2" d="M304,68c1.4,0,2.2,0.2,2.6,0.5c0.3,0.3,0.5,1.1,0.5,2.3c0,1.3-0.2,2.1-0.5,2.4c-0.3,0.3-1.2,0.5-2.6,0.5
		c-1.4,0-2.3-0.2-2.6-0.5c-0.3-0.3-0.5-1.1-0.5-2.4v-0.4l0-0.5c0-0.7,0.2-1.2,0.7-1.5S302.8,68,304,68z M304,68.5
		c-1.1,0-1.8,0.1-2,0.3c-0.2,0.2-0.3,0.9-0.3,2c0,1.1,0.1,1.8,0.3,2c0.2,0.2,0.9,0.3,2,0.3c1.2,0,1.8-0.1,2-0.3
		c0.2-0.2,0.3-0.9,0.3-2v-0.4l0-0.5c0-0.6-0.1-1-0.4-1.2C305.6,68.6,305,68.5,304,68.5z"/>
	<path class="st2" d="M314.8,68.1v5.5h-1.3l-3-3.8l-0.5-0.6l-0.2-0.3l-0.2-0.3h0l0,0.2l0,0.2v0.4v4.2h-0.8v-5.5h1.3l2.7,3.3l0.7,0.9
		l0.3,0.4l0.3,0.4h0l0-0.2l0-0.2v-0.4v-4.2H314.8z"/>
</g>
</svg>
