<svg id="Layer_1" data-name="Layer 1" xmlns="http://www.w3.org/2000/svg" viewBox="0 0 33.25 29.83"><defs><style>.cls-1{fill:gray;}</style></defs><title>InstaGrmIcons</title><path class="cls-1" d="M32.1,26a2.2,2.2,0,0,1-2.21,2.21H3.36A2.2,2.2,0,0,1,1.15,26V3.87A2.2,2.2,0,0,1,3.36,1.66H29.89A2.2,2.2,0,0,1,32.1,3.87ZM29.89,8.29V3.87H15.59L14.48,6.08H3.36V8.29Zm0,17.68V23.76H3.36V26ZM12.2,5V2.76H5.57V5Zm4.42,4.46a6.63,6.63,0,1,0,6.63,6.63A6.63,6.63,0,0,0,16.63,9.43Zm0,11.05A4.42,4.42,0,1,1,21,16.06,4.43,4.43,0,0,1,16.63,20.48Zm0-7.22A2.77,2.77,0,0,0,13.86,16,.55.55,0,1,0,15,16a1.66,1.66,0,0,1,1.66-1.66.55.55,0,0,0,0-1.11Z"/></svg>