<?xml version="1.0" encoding="utf-8"?>
<!-- Generator: Adobe Illustrator 21.1.0, SVG Export Plug-In . SVG Version: 6.00 Build 0)  -->
<svg version="1.1" id="Layer_1" xmlns="http://www.w3.org/2000/svg" xmlns:xlink="http://www.w3.org/1999/xlink" x="0px" y="0px"
	 viewBox="0 0 33.3 29.8" style="enable-background:new 0 0 33.3 29.8;" xml:space="preserve">
<style type="text/css">
	.st0{fill:#FFFFFF;}
</style>
<title>InstaGrmIcons</title>
<path class="st0" d="M32.1,26c0,1.2-1,2.2-2.2,2.2c0,0,0,0,0,0H3.4c-1.2,0-2.2-1-2.2-2.2c0,0,0,0,0,0V3.9c0-1.2,1-2.2,2.2-2.2
	c0,0,0,0,0,0h26.5c1.2,0,2.2,1,2.2,2.2c0,0,0,0,0,0V26z M29.9,8.3V3.9H15.6l-1.1,2.2H3.4v2.2H29.9z M29.9,26v-2.2H3.4V26L29.9,26z
	 M12.2,5V2.8H5.6V5H12.2z M16.6,9.5c-3.7,0-6.6,3-6.6,6.6s3,6.6,6.6,6.6s6.6-3,6.6-6.6C23.3,12.4,20.3,9.4,16.6,9.5
	C16.6,9.4,16.6,9.4,16.6,9.5L16.6,9.5z M16.6,20.5c-2.4,0-4.4-1.9-4.5-4.4s1.9-4.4,4.4-4.5s4.4,1.9,4.5,4.4c0,0,0,0,0,0
	C21,18.5,19,20.4,16.6,20.5L16.6,20.5z M16.6,13.3c-1.5,0-2.7,1.2-2.8,2.7c0,0.3,0.3,0.6,0.6,0.6c0.3,0,0.6-0.3,0.6-0.6
	c0-0.9,0.7-1.7,1.7-1.7c0.3,0,0.6-0.2,0.6-0.6C17.2,13.5,17,13.2,16.6,13.3L16.6,13.3z"/>
</svg>
