<svg id="Layer_1" data-name="Layer 1" xmlns="http://www.w3.org/2000/svg" viewBox="0 0 167.34 235.99"><defs><style>.cls-1{fill:#7a853b;}.cls-2{fill:#fff;}.cls-3{fill:#bcc099;}</style></defs><title>LogoLong</title><rect class="cls-1" x="5.36" y="6.25" width="156.61" height="200.82"/><path class="cls-2" d="M87.35,24.41c-27.52,0-37.51,22.43-37.51,37.51V80.42h60.57v-18H67.8v-.53c0-3.21,1.22-19.55,19.55-19.55h38.57V80.94c0,3.21-1.22,19.55-19.55,19.55h-19v18h19c27.52,0,37.51-22.44,37.51-37.52V24.41H87.35"/><polyline class="cls-1" points="78.12 229.75 70.66 221.36 70.65 229.75 67.76 229.75 67.76 217.3 70.65 217.3 78.12 225.61 78.12 217.3 81.02 217.3 81.02 229.75 78.12 229.75"/><path class="cls-1" d="M9.42,229.74a4.05,4.05,0,0,1-2.88-1.11,3.71,3.71,0,0,1-1.18-2.83v-4.57a3.69,3.69,0,0,1,1.18-2.8,4.05,4.05,0,0,1,2.88-1.13H19v2.89H9.42c-.77,0-1.16.35-1.16,1v4.58c0,.69.38,1,1.16,1h6.72V225H12.2v-2.89H19v7.67H9.42"/><polyline class="cls-1" points="40.8 220.19 40.8 222.07 50.48 222.07 50.48 224.97 40.8 224.97 40.8 226.85 51.14 226.85 51.14 229.75 37.9 229.75 37.9 217.3 51.16 217.3 51.16 220.19 40.8 220.19"/><polyline class="cls-1" points="55.71 220.19 55.71 222.07 65.39 222.07 65.39 224.97 55.71 224.97 55.71 226.85 66.05 226.85 66.05 229.75 52.81 229.75 52.81 217.3 66.07 217.3 66.07 220.19 55.71 220.19"/><path class="cls-3" d="M96.63,228.59a3.27,3.27,0,0,1-2.56,1.15H83.34v-2.9H94.07c.4,0,.6-.31.6-.93s-.2-.95-.6-.95h-7.8a3.23,3.23,0,0,1-2.56-1.16,3.81,3.81,0,0,1-1-2.66,4,4,0,0,1,1-2.7,3.2,3.2,0,0,1,2.54-1.14H97v2.89H86.27c-.4,0-.6.32-.6,1s.2.93.6.93h7.8a3.25,3.25,0,0,1,2.56,1.16,4,4,0,0,1,.94,2.68,4.07,4.07,0,0,1-.94,2.68"/><path class="cls-3" d="M113.88,224.37a3.06,3.06,0,0,1-2.61,1.33h-9.13v4.05h-2.9V217.3h12a3.06,3.06,0,0,1,2.61,1.33,4.95,4.95,0,0,1,0,5.74m-2.61-4.17h-9.13v2.61h9.13c.42,0,.63-.43.63-1.29S111.7,220.19,111.28,220.19Z"/><path class="cls-3" d="M128.75,229.74v-4H118.54v-2.89h10.21v-1.75c0-.63-.21-.94-.63-.94h-8.22c-.41,0-.61.32-.61.94v8.61h-2.89v-8.6a4,4,0,0,1,1-2.71,3.21,3.21,0,0,1,2.54-1.13h8.21a3.22,3.22,0,0,1,2.54,1.13,4,4,0,0,1,1,2.71v8.6h-2.9"/><path class="cls-3" d="M137.42,229.74a4,4,0,0,1-2.87-1.11,3.71,3.71,0,0,1-1.18-2.83v-4.57a3.69,3.69,0,0,1,1.18-2.8,4,4,0,0,1,2.87-1.13H147v2.89h-9.61q-1.16,0-1.16,1v4.58c0,.69.39,1,1.16,1H147v2.9h-9.61"/><polyline class="cls-3" points="151.62 220.19 151.62 222.07 161.3 222.07 161.3 224.97 151.62 224.97 151.62 226.85 161.96 226.85 161.96 229.75 148.72 229.75 148.72 217.3 161.98 217.3 161.98 220.19 151.62 220.19"/><path class="cls-1" d="M32.43,229.74h4l-3.65-4.09h0a3.12,3.12,0,0,0,2.63-1.3,5.08,5.08,0,0,0,0-5.76,3.1,3.1,0,0,0-2.63-1.3H20.7v12.45h2.89v-4.09h5.24l3.61,4.09m-8.84-7v-2.57h9c.53,0,.8.43.8,1.28s-.27,1.29-.8,1.29Z"/></svg>