<?xml version="1.0" encoding="utf-8"?>
<!-- Generator: Adobe Illustrator 23.1.0, SVG Export Plug-In . SVG Version: 6.00 Build 0)  -->
<svg version="1.0" id="Layer_1" xmlns="http://www.w3.org/2000/svg" xmlns:xlink="http://www.w3.org/1999/xlink" x="0px" y="0px"
	 width="319.64px" height="10.76px" viewBox="0 0 319.64 10.76" enable-background="new 0 0 319.64 10.76" xml:space="preserve">
<g>
	<path fill="#FFFFFF" d="M3.22,3.18v1.9h3.7v0.5h-3.7v2.1h3.8v0.5h-4.6v-5.5h4.7v0.5H3.22z"/>
	<path fill="#FFFFFF" d="M14.92,2.68v5.5h-1.3l-3-3.8l-0.5-0.6l-0.2-0.3l-0.2-0.3l0,0v0.2v0.2v0.4v4.2h-1v-5.5h1.3l2.7,3.3l0.7,0.9
		l0.3,0.4l0.3,0.4l0,0v-0.2v-0.2v-0.4v-4.2L14.92,2.68L14.92,2.68z"/>
	<path fill="#FFFFFF" d="M21.52,2.68h0.9l-2.6,5.5h-1.2l-2.6-5.5h0.9l1.9,4.2l0.2,0.4c0.1,0.2,0.1,0.3,0.2,0.4l0,0
		c0.1-0.3,0.2-0.6,0.4-0.8L21.52,2.68z"/>
	<path fill="#FFFFFF" d="M24.42,2.68v5.5h-0.8v-5.5H24.42z"/>
	<path fill="#FFFFFF" d="M26.32,8.18v-5.5h3.5c0.8,0,1.3,0.1,1.6,0.4s0.5,0.6,0.5,1.2c0,0.5-0.1,0.9-0.3,1.1c-0.2,0.2-0.5,0.3-1,0.4
		l0,0c0.8,0,1.2,0.4,1.2,1.1v1.4h-0.8v-1.3c0-0.6-0.4-1-1.1-1h-0.3h-2.5v2.2C27.12,8.18,26.32,8.18,26.32,8.18z M27.12,5.38h2.4
		c0.6,0,1-0.1,1.3-0.2c0.2-0.1,0.3-0.4,0.3-0.8c0-0.5-0.1-0.8-0.3-1c-0.2-0.2-0.5-0.2-1.1-0.2h-2.6
		C27.12,3.18,27.12,5.38,27.12,5.38z"/>
	<path fill="#FFFFFF" d="M36.32,2.58c1.4,0,2.2,0.2,2.6,0.5c0.3,0.3,0.5,1.1,0.5,2.3c0,1.3-0.2,2.1-0.5,2.4s-1.2,0.5-2.6,0.5
		c-1.4,0-2.3-0.2-2.6-0.5s-0.5-1.1-0.5-2.4v-0.4v-0.5c0-0.7,0.2-1.2,0.7-1.5C34.32,2.68,35.12,2.58,36.32,2.58z M36.32,3.08
		c-1.1,0-1.8,0.1-2,0.3c-0.2,0.2-0.3,0.9-0.3,2s0.1,1.8,0.3,2c0.2,0.2,0.9,0.3,2,0.3c1.2,0,1.8-0.1,2-0.3s0.3-0.9,0.3-2v-0.4v-0.5
		c0-0.6-0.1-1-0.4-1.2C37.92,3.18,37.32,3.08,36.32,3.08z"/>
	<path fill="#FFFFFF" d="M47.02,2.68v5.5h-1.3l-3-3.8l-0.5-0.6l-0.2-0.3l-0.2-0.3l0,0v0.2v0.2v0.4v4.2h-0.8v-5.5h1.3l2.7,3.3
		l0.7,0.9l0.3,0.4l0.3,0.4l0,0v-0.2v-0.2v-0.4v-4.2L47.02,2.68L47.02,2.68z"/>
	<path fill="#FFFFFF" d="M56.92,2.68v5.5h-0.8v-4.4v-0.3v-0.2v-0.2l0,0l-0.1,0.1c0,0.1-0.1,0.1-0.1,0.1l-0.1,0.3l-2.4,4.6h-0.8
		l-2.5-4.5l-0.1-0.3l-0.1-0.1c0,0,0-0.1-0.1-0.1l0,0v0.1v0.2v0.3v4.4h-0.8v-5.5h1.4l1.9,3.6l0.3,0.6l0.2,0.3l0.1,0.3l0,0l0.1-0.3
		c0.1-0.1,0.1-0.2,0.1-0.3l0.3-0.6l1.9-3.6H56.92z"/>
	<path fill="#FFFFFF" d="M59.42,3.18v1.9h3.7v0.5h-3.7v2.1h3.8v0.5h-4.7v-5.5h4.7v0.5H59.42z"/>
	<path fill="#FFFFFF" d="M71.02,2.68v5.5h-1.3l-3-3.8l-0.5-0.6l-0.2-0.3l-0.2-0.3l0,0v0.2v0.2v0.4v4.2h-0.8v-5.5h1.3l2.7,3.3
		l0.7,0.9l0.3,0.4l0.3,0.4l0,0v-0.2v-0.2v-0.4v-4.2L71.02,2.68L71.02,2.68z"/>
	<path fill="#FFFFFF" d="M75.52,3.18v4.9h-0.8v-4.9h-2.4v-0.6h5.5v0.6H75.52z"/>
	<path fill="#FFFFFF" d="M83.52,6.98h-3.7l-0.6,1.2h-0.8l2.7-5.5h1.1l2.7,5.5h-0.9L83.52,6.98z M83.32,6.48l-1.6-3.4l-1.6,3.4H83.32
		z"/>
	<path fill="#FFFFFF" d="M87.12,2.68v4.9h3.7v0.6h-4.5v-5.5H87.12z"/>
	<path fill="#FFFFFF" d="M92.92,2.68v4.9h3.7v0.6h-4.5v-5.5H92.92z"/>
	<path fill="#FFFFFF" d="M103.42,2.68l-2.7,3.2v2.3h-0.8v-2.3l-2.7-3.2h1l1.6,1.9l0.3,0.4c0,0,0.1,0.1,0.1,0.2l0.1,0.2l0,0
		c0.1-0.1,0.1-0.1,0.1-0.2l0.1-0.2l0.3-0.4l1.6-1.9H103.42z"/>
	<path fill="#FFFFFF" d="M112.82,4.18h-0.8c0-0.4-0.1-0.7-0.3-0.8c-0.2-0.1-0.7-0.2-1.4-0.2c-0.9,0-1.4,0.1-1.7,0.2
		s-0.4,0.4-0.4,0.8s0.1,0.7,0.3,0.8s0.8,0.2,1.7,0.2c1.1,0,1.8,0.1,2.2,0.3c0.3,0.2,0.5,0.6,0.5,1.2c0,0.7-0.2,1.1-0.5,1.3
		c-0.4,0.2-1.1,0.3-2.3,0.3c-1,0-1.7-0.1-2.1-0.3c-0.3-0.2-0.5-0.6-0.5-1.2v-0.2h0.8l0,0c0,0.5,0.1,0.8,0.3,0.9s0.7,0.2,1.5,0.2
		c0.9,0,1.5-0.1,1.7-0.2s0.3-0.4,0.3-1c0-0.3-0.1-0.6-0.2-0.7s-0.5-0.2-0.9-0.2h-0.9h-0.8c-1.2-0.1-1.8-0.6-1.8-1.5
		c0-0.6,0.2-1,0.5-1.3c0.4-0.2,1.1-0.3,2.1-0.3c1.1,0,1.8,0.1,2.1,0.3S112.82,3.48,112.82,4.18z"/>
	<path fill="#FFFFFF" d="M119.42,2.68h0.8v3.9c0,0.7-0.2,1.2-0.6,1.4c-0.4,0.2-1.1,0.3-2.3,0.3c-1.1,0-1.9-0.1-2.3-0.3
		s-0.6-0.6-0.6-1.2v-0.2v-3.9h0.8v3.9c0,0.5,0.1,0.9,0.3,1c0.2,0.1,0.8,0.2,1.6,0.2c0.9,0,1.5-0.1,1.8-0.2s0.4-0.5,0.4-1
		L119.42,2.68L119.42,2.68z"/>
	<path fill="#FFFFFF" d="M127.12,4.18h-0.8c0-0.4-0.1-0.7-0.3-0.8c-0.2-0.1-0.7-0.2-1.4-0.2c-0.9,0-1.4,0.1-1.7,0.2
		s-0.4,0.4-0.4,0.8s0.1,0.7,0.3,0.8s0.8,0.2,1.7,0.2c1.1,0,1.8,0.1,2.2,0.3c0.3,0.2,0.5,0.6,0.5,1.2c0,0.7-0.2,1.1-0.5,1.3
		c-0.4,0.2-1.1,0.3-2.3,0.3c-1,0-1.7-0.1-2.1-0.3c-0.3-0.2-0.5-0.6-0.5-1.2v-0.2h0.8l0,0c0,0.5,0.1,0.8,0.3,0.9s0.7,0.2,1.5,0.2
		c0.9,0,1.5-0.1,1.7-0.2s0.3-0.4,0.3-1c0-0.3-0.1-0.6-0.2-0.7s-0.5-0.2-0.9-0.2h-0.9h-0.8c-1.2-0.1-1.8-0.6-1.8-1.5
		c0-0.6,0.2-1,0.5-1.3c0.4-0.2,1.1-0.3,2.1-0.3c1.1,0,1.8,0.1,2.1,0.3S127.12,3.48,127.12,4.18z"/>
	<path fill="#FFFFFF" d="M131.32,3.18v4.9h-0.8v-4.9h-2.4v-0.6h5.5v0.6H131.32z"/>
	<path fill="#FFFFFF" d="M139.32,6.98h-3.7l-0.6,1.2h-0.9l2.7-5.5h1.1l2.7,5.5h-0.9L139.32,6.98z M139.12,6.48l-1.6-3.4l-1.6,3.4
		H139.12z"/>
	<path fill="#FFFFFF" d="M142.92,2.68v5.5h-0.8v-5.5H142.92z"/>
	<path fill="#FFFFFF" d="M151.02,2.68v5.5h-1.3l-3-3.8l-0.5-0.6l-0.2-0.3l-0.2-0.3l0,0v0.2v0.2v0.4v4.2h-0.8v-5.5h1.3l2.7,3.3
		l0.7,0.9l0.3,0.4l0.3,0.4l0,0v-0.2v-0.2v-0.4v-4.2L151.02,2.68L151.02,2.68z"/>
	<path fill="#FFFFFF" d="M157.42,6.98h-3.7l-0.6,1.2h-0.9l2.7-5.5h1.1l2.7,5.5h-0.9L157.42,6.98z M157.22,6.48l-1.6-3.4l-1.6,3.4
		H157.22z"/>
	<path fill="#FFFFFF" d="M160.12,8.18v-5.5h3.2c0.9,0,1.5,0.1,1.7,0.3c0.3,0.2,0.4,0.6,0.4,1.2s-0.3,1-0.9,1.2l0,0
		c0.8,0.1,1.2,0.6,1.2,1.3c0,0.6-0.2,1-0.5,1.2s-0.8,0.4-1.6,0.4L160.12,8.18L160.12,8.18z M160.92,5.08h2.2c0.7,0,1.1-0.1,1.3-0.2
		s0.3-0.4,0.3-0.8s-0.1-0.6-0.3-0.7s-0.5-0.2-1.1-0.2h-2.4V5.08z M160.92,7.68h1.7h0.7c0.6,0,1-0.1,1.2-0.2s0.3-0.4,0.3-0.8
		c0-0.5-0.1-0.8-0.3-0.9s-0.7-0.2-1.6-0.2h-2.1v2.1H160.92z"/>
	<path fill="#FFFFFF" d="M168.22,2.68v4.9h3.7v0.6h-4.5v-5.5H168.22z"/>
	<path fill="#FFFFFF" d="M173.72,3.18v1.9h3.7v0.5h-3.7v2.1h3.8v0.5h-4.7v-5.5h4.7v0.5H173.72z"/>
	<path fill="#FFFFFF" d="M182.42,8.18v-5.5h3.4c1,0,1.7,0.2,2.1,0.5c0.4,0.3,0.6,1,0.6,2c0,1.2-0.2,2-0.5,2.4s-1,0.6-2,0.6H182.42z
		 M183.22,7.68h2.4c0.9,0,1.4-0.1,1.7-0.4s0.4-0.9,0.4-1.8c0-1-0.1-1.6-0.3-1.9s-0.7-0.4-1.6-0.4h-2.5L183.22,7.68L183.22,7.68z"/>
	<path fill="#FFFFFF" d="M190.62,3.18v1.9h3.7v0.5h-3.7v2.1h3.8v0.5h-4.7v-5.5h4.7v0.5H190.62z"/>
	<path fill="#FFFFFF" d="M201.02,4.18h-0.8c0-0.4-0.1-0.7-0.3-0.8c-0.2-0.1-0.7-0.2-1.4-0.2c-0.9,0-1.4,0.1-1.7,0.2
		s-0.4,0.4-0.4,0.8s0.1,0.7,0.3,0.8s0.8,0.2,1.7,0.2c1.1,0,1.8,0.1,2.2,0.3c0.3,0.2,0.5,0.6,0.5,1.2c0,0.7-0.2,1.1-0.5,1.3
		c-0.4,0.2-1.1,0.3-2.3,0.3c-1,0-1.7-0.1-2.1-0.3c-0.3-0.2-0.5-0.6-0.5-1.2v-0.2h0.8l0,0c0,0.5,0.1,0.8,0.3,0.9s0.7,0.2,1.5,0.2
		c0.9,0,1.5-0.1,1.7-0.2s0.3-0.4,0.3-1c0-0.3-0.1-0.6-0.2-0.7c-0.1-0.1-0.5-0.2-0.9-0.2h-0.9h-0.8c-1.2-0.1-1.8-0.6-1.8-1.5
		c0-0.6,0.2-1,0.5-1.3c0.4-0.2,1.1-0.3,2.1-0.3c1.1,0,1.8,0.1,2.1,0.3S201.02,3.48,201.02,4.18z"/>
	<path fill="#FFFFFF" d="M203.52,2.68v5.5h-0.8v-5.5H203.52z"/>
	<path fill="#FFFFFF" d="M208.02,5.38h3.1c0,0.1,0,0.3,0,0.6c0,1-0.2,1.6-0.5,1.8c-0.3,0.2-1.2,0.4-2.5,0.4s-2.1-0.1-2.5-0.4
		s-0.5-0.9-0.5-1.9v-0.8v-0.5c0-0.8,0.2-1.4,0.6-1.6s1.2-0.4,2.5-0.4c1.2,0,2,0.1,2.4,0.3s0.5,0.6,0.5,1.2v0.2h-0.8v-0.1
		c0-0.5-0.1-0.7-0.4-0.8c-0.2-0.1-0.9-0.2-1.9-0.2c-0.9,0-1.5,0.1-1.8,0.3s-0.4,0.6-0.4,1.3v0.7v0.8c0,0.7,0.1,1.1,0.4,1.3
		c0.3,0.2,1,0.2,2.1,0.2c0.9,0,1.4-0.1,1.6-0.2c0.2-0.2,0.3-0.5,0.3-1.2c0-0.1,0-0.2,0-0.3h-2.3L208.02,5.38L208.02,5.38z"/>
	<path fill="#FFFFFF" d="M218.92,2.68v5.5h-1.3l-3-3.8l-0.5-0.6l-0.2-0.3l-0.2-0.3l0,0v0.2v0.2v0.4v4.2h-0.8v-5.5h1.3l2.7,3.3
		l0.7,0.9l0.3,0.4l0.3,0.4l0,0v-0.2v-0.2v-0.4v-4.2L218.92,2.68L218.92,2.68z"/>
	<path fill="#FFFFFF" d="M228.52,6.98h-3.7l-0.6,1.2h-0.9l2.7-5.5h1.1l2.7,5.5h-0.9L228.52,6.98z M228.32,6.48l-1.6-3.4l-1.6,3.4
		H228.32z"/>
	<path fill="#FFFFFF" d="M237.42,2.68v5.5h-1.3l-3-3.8l-0.5-0.6l-0.2-0.3l-0.2-0.3l0,0v0.2v0.2v0.4v4.2h-0.8v-5.5h1.3l2.7,3.3
		l0.7,0.9l0.3,0.4l0.3,0.4l0,0v-0.2v-0.2v-0.4v-4.2L237.42,2.68L237.42,2.68z"/>
	<path fill="#FFFFFF" d="M239.42,8.18v-5.5h3.4c1,0,1.7,0.2,2.1,0.5c0.4,0.3,0.6,1,0.6,2c0,1.2-0.2,2-0.5,2.4s-1,0.6-2,0.6H239.42z
		 M240.22,7.68h2.4c0.9,0,1.4-0.1,1.7-0.4s0.4-0.9,0.4-1.8c0-1-0.1-1.6-0.3-1.9s-0.7-0.4-1.6-0.4h-2.5L240.22,7.68L240.22,7.68z"/>
	<path fill="#FFFFFF" d="M251.12,3.18v1.9h3.5v0.5h-3.5v2.5h-0.8v-5.5h4.4v0.5L251.12,3.18L251.12,3.18z"/>
	<path fill="#FFFFFF" d="M260.62,6.98h-3.7l-0.6,1.2h-0.9l2.7-5.5h1.1l2.7,5.5h-0.9L260.62,6.98z M260.42,6.48l-1.6-3.4l-1.6,3.4
		H260.42z"/>
	<path fill="#FFFFFF" d="M263.32,8.18v-5.5h3.2c0.9,0,1.5,0.1,1.7,0.3c0.3,0.2,0.4,0.6,0.4,1.2s-0.3,1-0.9,1.2l0,0
		c0.8,0.1,1.2,0.6,1.2,1.3c0,0.6-0.2,1-0.5,1.2s-0.8,0.4-1.6,0.4L263.32,8.18L263.32,8.18z M264.12,5.08h2.2c0.7,0,1.1-0.1,1.3-0.2
		c0.2-0.1,0.3-0.4,0.3-0.8s-0.1-0.6-0.3-0.7c-0.2-0.1-0.6-0.2-1.1-0.2h-2.4V5.08z M264.12,7.68h1.7h0.7c0.6,0,1-0.1,1.2-0.2
		s0.3-0.4,0.3-0.8c0-0.5-0.1-0.8-0.3-0.9c-0.2-0.1-0.7-0.2-1.6-0.2h-2.1L264.12,7.68L264.12,7.68z"/>
	<path fill="#FFFFFF" d="M270.62,8.18v-5.5h3.5c0.8,0,1.3,0.1,1.6,0.4c0.3,0.2,0.5,0.6,0.5,1.2c0,0.5-0.1,0.9-0.3,1.1
		c-0.2,0.2-0.5,0.3-1,0.4l0,0c0.8,0,1.2,0.4,1.2,1.1v1.4h-0.8v-1.3c0-0.6-0.4-1-1.1-1h-0.3h-2.5v2.2
		C271.42,8.18,270.62,8.18,270.62,8.18z M271.42,5.38h2.4c0.6,0,1-0.1,1.3-0.2c0.2-0.1,0.3-0.4,0.3-0.8c0-0.5-0.1-0.8-0.3-1
		s-0.5-0.2-1.1-0.2h-2.6V5.38z"/>
	<path fill="#FFFFFF" d="M278.72,2.68v5.5h-0.8v-5.5H278.72z"/>
	<path fill="#FFFFFF" d="M285.42,6.28h0.8v0.2c0,0.8-0.2,1.2-0.5,1.4c-0.3,0.2-1.2,0.3-2.5,0.3c-1.2,0-2-0.2-2.3-0.5
		s-0.5-1.1-0.5-2.3c0-1,0-1.6,0.1-1.8c0.1-0.2,0.3-0.5,0.6-0.7c0.4-0.2,1.3-0.3,2.7-0.3c0.9,0,1.5,0.1,1.9,0.3
		c0.3,0.2,0.5,0.6,0.5,1.3v0.1h-0.8v-0.2c0-0.4-0.1-0.7-0.3-0.9s-0.6-0.2-1.3-0.2c-1.2,0-1.9,0.1-2.1,0.2s-0.4,0.6-0.4,1.2
		c0,1.6,0.1,2.5,0.3,2.7c0.2,0.3,0.8,0.4,1.8,0.4s1.6-0.1,1.8-0.2c0.2-0.1,0.4-0.4,0.4-0.9L285.42,6.28z"/>
	<path fill="#FFFFFF" d="M292.22,6.98h-3.7l-0.6,1.2h-0.9l2.7-5.5h1.1l2.7,5.5h-0.9L292.22,6.98z M291.92,6.48l-1.6-3.4l-1.6,3.4
		H291.92z"/>
	<path fill="#FFFFFF" d="M297.42,3.18v4.9h-0.8v-4.9h-2.4v-0.6h5.5v0.6H297.42z"/>
	<path fill="#FFFFFF" d="M301.82,2.68v5.5h-0.8v-5.5H301.82z"/>
	<path fill="#FFFFFF" d="M306.42,2.58c1.4,0,2.2,0.2,2.6,0.5c0.3,0.3,0.5,1.1,0.5,2.3c0,1.3-0.2,2.1-0.5,2.4s-1.2,0.5-2.6,0.5
		s-2.3-0.2-2.6-0.5c-0.3-0.3-0.5-1.1-0.5-2.4v-0.4v-0.5c0-0.7,0.2-1.2,0.7-1.5S305.22,2.58,306.42,2.58z M306.42,3.08
		c-1.1,0-1.8,0.1-2,0.3c-0.2,0.2-0.3,0.9-0.3,2s0.1,1.8,0.3,2c0.2,0.2,0.9,0.3,2,0.3c1.2,0,1.8-0.1,2-0.3c0.2-0.2,0.3-0.9,0.3-2
		v-0.4v-0.5c0-0.6-0.1-1-0.4-1.2C308.02,3.18,307.42,3.08,306.42,3.08z"/>
	<path fill="#FFFFFF" d="M317.22,2.68v5.5h-1.3l-3-3.8l-0.5-0.6l-0.2-0.3l-0.2-0.3l0,0v0.2v0.2v0.4v4.2h-0.8v-5.5h1.3l2.7,3.3
		l0.7,0.9l0.3,0.4l0.3,0.4l0,0v-0.2v-0.2v-0.4v-4.2L317.22,2.68L317.22,2.68z"/>
</g>
</svg>
