<?xml version="1.0" encoding="utf-8"?>
<!-- Generator: Adobe Illustrator 23.1.0, SVG Export Plug-In . SVG Version: 6.00 Build 0)  -->
<svg version="1.1" id="Layer_1" xmlns="http://www.w3.org/2000/svg" xmlns:xlink="http://www.w3.org/1999/xlink" x="0px" y="0px"
	 width="355px" height="73.6px" viewBox="0 0 355 73.6" style="enable-background:new 0 0 355 73.6;" xml:space="preserve">
<style type="text/css">
	.st0{fill:#FFFFFF;}
</style>
<g>
	<polyline class="st0" points="146.8,60.5 131.8,43.7 131.7,60.5 125.9,60.5 125.9,35.5 131.7,35.5 146.8,52.2 146.8,35.5 
		152.6,35.5 152.6,60.5 146.8,60.5 	"/>
	<path class="st0" d="M8.7,60.5c-2.3,0-4.2-0.7-5.8-2.2s-2.4-3.4-2.4-5.7v-9.2c0-2.3,0.8-4.1,2.4-5.6s3.5-2.3,5.8-2.3H28v5.8H8.6
		c-1.6,0-2.3,0.7-2.3,2.1v9.2c0,1.4,0.8,2.1,2.3,2.1h13.5v-3.8h-7.9v-5.8H28v15.4H8.7"/>
	<polyline class="st0" points="71.7,41.3 71.7,45.1 91.2,45.1 91.2,50.9 71.7,50.9 71.7,54.7 92.5,54.7 92.5,60.5 65.9,60.5 
		65.9,35.5 92.6,35.5 92.6,41.3 71.7,41.3 	"/>
	<polyline class="st0" points="101.7,41.3 101.7,45.1 121.2,45.1 121.2,50.9 101.7,50.9 101.7,54.7 122.5,54.7 122.5,60.5 
		95.9,60.5 95.9,35.5 122.5,35.5 122.5,41.3 101.7,41.3 	"/>
	<path class="st0" d="M184,58.2c-1.4,1.6-3.1,2.3-5.1,2.3h-21.6v-5.8h21.6c0.8,0,1.2-0.6,1.2-1.9c0-1.3-0.4-1.9-1.2-1.9h-15.7
		c-2.1,0-3.8-0.8-5.1-2.3c-1.3-1.4-1.9-3.2-1.9-5.4c0-2.1,0.7-3.9,2-5.5c1.3-1.5,3-2.3,5.1-2.3h21.6v5.8h-21.6
		c-0.8,0-1.2,0.6-1.2,1.9c0,1.2,0.4,1.9,1.2,1.9H179c2.1,0,3.8,0.8,5.1,2.3s1.9,3.3,1.9,5.4C185.9,54.9,185.2,56.7,184,58.2"/>
	<path class="st0" d="M218.7,49.7c-1.3,1.8-3,2.7-5.2,2.7h-18.4v8.1h-5.8v-25h24.2c2.2,0,3.9,0.9,5.2,2.7c1.2,1.6,1.8,3.6,1.8,5.8
		S219.9,48.1,218.7,49.7 M213.4,41.3H195v5.2h18.4c0.8,0,1.3-0.9,1.3-2.6C214.7,42.2,214.3,41.3,213.4,41.3z"/>
	<path class="st0" d="M248.6,60.5v-8H228v-5.8h20.5v-3.5c0-1.3-0.4-1.9-1.3-1.9h-16.5c-0.8,0-1.2,0.6-1.2,1.9v17.3h-5.8V43.3
		c0-2.1,0.6-4,1.9-5.4c1.3-1.5,3-2.3,5.1-2.3h16.5c2.1,0,3.8,0.8,5.1,2.3s2,3.3,2,5.4v17.3L248.6,60.5"/>
	<path class="st0" d="M266,60.5c-2.3,0-4.2-0.7-5.8-2.2c-1.6-1.5-2.4-3.4-2.4-5.7v-9.2c0-2.3,0.8-4.1,2.4-5.6s3.5-2.3,5.8-2.3h19.3
		v5.8H266c-1.6,0-2.3,0.7-2.3,2.1v9.2c0,1.4,0.8,2.1,2.3,2.1h19.3v5.8L266,60.5"/>
	<polyline class="st0" points="294.5,41.3 294.5,45.1 314,45.1 314,50.9 294.5,50.9 294.5,54.7 315.3,54.7 315.3,60.5 288.7,60.5 
		288.7,35.5 315.4,35.5 315.4,41.3 294.5,41.3 	"/>
	<path class="st0" d="M54.9,60.5h8l-7.3-8.2l0,0c2.2,0,4-0.9,5.3-2.6c1.2-1.6,1.8-3.5,1.8-5.8s-0.6-4.2-1.8-5.8
		c-1.3-1.7-3.1-2.6-5.3-2.6H31.3v25h5.8v-8.2h10.5L54.9,60.5 M37.1,46.5v-5.2h18.1c1.1,0,1.6,0.9,1.6,2.6c0,1.7-0.5,2.6-1.6,2.6
		C55.2,46.5,37.1,46.5,37.1,46.5z"/>
	<path class="st0" d="M333.4,0c-10.5,0-14.3,8.6-14.3,14.3v7.1h23.1v-6.9c0,0-12.3,0-16.3,0v-0.2c0-1.2,0.5-7.5,7.5-7.5
		c0,0,10.2,0,14.7,0c0,4.5,0,14.7,0,14.7c0,1.2-0.5,7.5-7.5,7.5h-7.3v6.9h7.3c10.5,0,14.3-8.6,14.3-14.3V0H333.4"/>
</g>
</svg>
